<?xml version="1.0" encoding="UTF-8" standalone="no"?>
<!-- Created with Inkscape (http://www.inkscape.org/) -->

<svg
   width="210mm"
   height="297mm"
   viewBox="0 0 210 297"
   version="1.1"
   id="svg836"
   inkscape:version="1.1.2 (b8e25be833, 2022-02-05)"
   sodipodi:docname="88.svg"
   xmlns:inkscape="http://www.inkscape.org/namespaces/inkscape"
   xmlns:sodipodi="http://sodipodi.sourceforge.net/DTD/sodipodi-0.dtd"
   xmlns="http://www.w3.org/2000/svg"
   xmlns:svg="http://www.w3.org/2000/svg">
  <sodipodi:namedview
     id="namedview838"
     pagecolor="#ffffff"
     bordercolor="#cccccc"
     borderopacity="1"
     inkscape:pageshadow="0"
     inkscape:pageopacity="1"
     inkscape:pagecheckerboard="0"
     inkscape:document-units="mm"
     showgrid="false"
     inkscape:zoom="0.71268238"
     inkscape:cx="396.38976"
     inkscape:cy="561.25984"
     inkscape:window-width="1920"
     inkscape:window-height="1009"
     inkscape:window-x="-8"
     inkscape:window-y="-8"
     inkscape:window-maximized="1"
     inkscape:current-layer="layer1" />
  <defs
     id="defs833" />
  <g
     inkscape:label="Camada 1"
     inkscape:groupmode="layer"
     id="layer1">
    <g
       id="g439"
       transform="matrix(0.90635878,0,0,0.90635878,-35.53077,62.069621)">
      <g
         aria-label="c2far"
         transform="scale(0.95292693,1.0493984)"
         id="text236"
         style="font-size:40.4566px;font-family:Revamped;-inkscape-font-specification:Revamped;stroke-width:25.4845">
        <path
           d="m 97.037019,98.830757 q 0,1.975423 1.97542,1.975423 v 5.92626 q -9.877099,0 -9.877099,-7.901683 V 86.978238 q 0,-7.90168 9.877099,-7.90168 h 7.901681 v 5.92626 h -7.901681 q -1.97542,0 -1.97542,1.97542 z M 110.86496,86.978238 q 0,-1.97542 -1.97542,-1.97542 v -5.92626 q 9.8771,0 9.8771,7.90168 v 3.95084 h -7.90168 z m -1.97542,19.754202 h -7.90168 v -5.92626 h 7.90168 q 1.97542,0 1.97542,-1.975423 v -3.950839 h 7.90168 v 3.950839 q 0,7.901683 -9.8771,7.901683 z"
           id="path964" />
        <path
           d="m 142.47168,85.002818 h -19.7542 v -5.92626 h 19.7542 q 9.8771,0 9.8771,7.90168 v 1.97542 q 0,7.901679 -9.8771,7.901679 h -3.95084 v -5.926259 h 3.95084 q 1.97542,0 1.97542,-1.97542 v -1.97542 q 0,-1.97542 -1.97542,-1.97542 z m 9.8771,15.803362 v 5.92626 h -29.6313 v -7.901683 q 0,-7.901679 9.8771,-7.901679 h 3.95084 v 5.926259 h -3.95084 q -1.97542,0 -1.97542,1.97542 v 1.975423 z"
           id="path966" />
        <path
           d="m 183.95549,85.002818 h -27.65587 v -5.92626 h 27.65587 z m 0,11.852519 h -13.82793 l -3.95084,-5.926259 h 17.77877 z m -27.65587,-9.877099 h 7.90168 v 19.754202 h -7.90168 z"
           id="path968" />
        <path
           d="m 192.9239,83.738549 4.08912,-7.881925 16.0009,30.875816 h -8.4943 z m 2.92363,10.509234 -6.3411,12.484657 h -8.49431 L 191.7189,86.069545 Z"
           id="path970" />
        <path
           d="M 222.69348,106.73244 H 214.7918 V 86.978238 h 7.90168 z M 234.546,85.002818 h -19.7542 v -5.92626 h 19.7542 q 9.8771,0 9.8771,7.90168 v 1.97542 q 0,6.341098 -6.36085,7.585612 l 6.36085,10.19317 h -9.8771 l -9.8771,-15.803362 h 9.8771 q 1.97542,0 1.97542,-1.97542 v -1.97542 q 0,-1.97542 -1.97542,-1.97542 z"
           id="path972" />
      </g>
      <g
         aria-label="&lt;"
         id="text348"
         style="font-size:102.455px;font-family:Consolas;-inkscape-font-specification:Consolas;stroke-width:64.5388">
        <path
           d="M 91.192972,118.36645 85.740045,123.8694 52.121997,95.804333 85.740045,67.739267 91.192972,73.292248 63.928336,95.704279 Z"
           id="path975" />
      </g>
      <g
         aria-label="&lt;"
         transform="scale(-1,1)"
         id="text348-8"
         style="font-size:102.455px;font-family:Consolas;-inkscape-font-specification:Consolas;stroke-width:64.5388">
        <path
           d="m -225.4238,118.36645 -5.45292,5.50295 -33.61805,-28.065067 33.61805,-28.065066 5.45292,5.552981 -27.26463,22.412031 z"
           id="path978" />
      </g>
      <g
         aria-label="coding to far"
         id="text429"
         style="font-size:16.2141px;font-family:Consolas;-inkscape-font-specification:Consolas;stroke-width:10.2136">
        <path
           d="m 108.19438,127.55478 q -0.53836,0.20584 -1.10839,0.30085 -0.56211,0.10292 -1.1638,0.10292 -1.88426,0 -2.90556,-1.0213 -1.01338,-1.0213 -1.01338,-2.98472 0,-0.94213 0.29293,-1.71009 0.29293,-0.76795 0.82337,-1.31422 0.53044,-0.54628 1.26673,-0.83921 0.73628,-0.30085 1.62299,-0.30085 0.61753,0 1.15589,0.0871 0.53836,0.0871 1.02922,0.28501 v 1.31423 q -0.51461,-0.26918 -1.05297,-0.38793 -0.53044,-0.12668 -1.10047,-0.12668 -0.53044,0 -1.00546,0.20585 -0.46711,0.19792 -0.82338,0.57794 -0.35626,0.38002 -0.56211,0.92629 -0.20584,0.54628 -0.20584,1.23506 0,1.4409 0.6967,2.16136 0.70462,0.71253 1.94759,0.71253 0.56211,0 1.08464,-0.12667 0.53044,-0.12668 1.0213,-0.38002 z"
           id="path981" />
        <path
           d="m 117.85317,123.81002 q 0,0.92629 -0.26127,1.70216 -0.26126,0.76796 -0.75212,1.32215 -0.49085,0.54627 -1.19547,0.85504 -0.70462,0.30085 -1.59924,0.30085 -0.85504,0 -1.53591,-0.26127 -0.67295,-0.26918 -1.14797,-0.78378 -0.4671,-0.51461 -0.72045,-1.27465 -0.24543,-0.76003 -0.24543,-1.74966 0,-0.9263 0.26127,-1.68633 0.26126,-0.76796 0.75211,-1.31423 0.49086,-0.55419 1.19548,-0.85504 0.70461,-0.30877 1.59924,-0.30877 0.85504,0 1.52799,0.26918 0.68086,0.26127 1.14797,0.77587 0.47502,0.50669 0.72045,1.26673 0.25335,0.76004 0.25335,1.74175 z m -1.40924,0.0633 q 0,-0.73629 -0.16626,-1.28257 -0.15834,-0.55419 -0.45918,-0.91837 -0.30085,-0.3721 -0.73629,-0.5542 -0.42752,-0.19 -0.95796,-0.19 -0.61753,0 -1.06088,0.24542 -0.43544,0.23752 -0.72045,0.64128 -0.2771,0.40377 -0.41169,0.94213 -0.12667,0.53044 -0.12667,1.11631 0,0.73628 0.15834,1.29047 0.16626,0.5542 0.4671,0.9263 0.30085,0.36418 0.72837,0.55419 0.42752,0.18209 0.96588,0.18209 0.61753,0 1.05297,-0.23751 0.44335,-0.24543 0.72045,-0.6492 0.28501,-0.40377 0.41168,-0.93421 0.13459,-0.53836 0.13459,-1.13213 z"
           id="path983" />
        <path
           d="m 119.44449,124.03961 q 0,-1.01338 0.2771,-1.79717 0.27709,-0.7917 0.78378,-1.33006 0.51461,-0.54627 1.22715,-0.82337 0.72045,-0.28501 1.59924,-0.28501 0.38002,0 0.7442,0.0475 0.3721,0.0475 0.72837,0.15042 v -3.34099 h 1.38548 v 11.18678 h -1.23506 l -0.0475,-1.50424 q -0.57794,0.83921 -1.25089,1.24298 -0.67295,0.40377 -1.45674,0.40377 -0.68086,0 -1.20339,-0.28502 -0.51461,-0.28501 -0.86296,-0.79962 -0.34043,-0.52252 -0.5146,-1.25089 -0.17418,-0.72837 -0.17418,-1.61508 z m 1.40923,-0.0871 q 0,1.4409 0.41961,2.15343 0.42752,0.70462 1.20339,0.70462 0.52252,0 1.10047,-0.46711 0.58586,-0.4671 1.22714,-1.38548 v -3.68934 q -0.34044,-0.15834 -0.75212,-0.23751 -0.41169,-0.0871 -0.81546,-0.0871 -1.12422,0 -1.75758,0.72837 -0.62545,0.72837 -0.62545,2.28011 z"
           id="path985" />
        <path
           d="m 131.47048,121.03905 h -2.35137 V 119.899 h 3.74476 v 6.80074 h 2.3672 v 1.14797 h -6.37322 v -1.14797 h 2.61263 z m 0.48293,-4.47312 q 0.2296,0 0.42752,0.0871 0.19793,0.0792 0.34044,0.2296 0.15042,0.15042 0.22959,0.34835 0.0871,0.19001 0.0871,0.4196 0,0.22168 -0.0871,0.4196 -0.0792,0.19793 -0.22959,0.34835 -0.14251,0.15043 -0.34044,0.23752 -0.19792,0.0792 -0.42752,0.0792 -0.22959,0 -0.42752,-0.0792 -0.19792,-0.0871 -0.34835,-0.23752 -0.1425,-0.15042 -0.22959,-0.34835 -0.0792,-0.19792 -0.0792,-0.4196 0,-0.22959 0.0792,-0.4196 0.0871,-0.19793 0.22959,-0.34835 0.15043,-0.15043 0.34835,-0.2296 0.19793,-0.0871 0.42752,-0.0871 z"
           id="path987" />
        <path
           d="m 137.67744,119.899 h 1.22714 l 0.0554,1.28256 q 0.34835,-0.41168 0.67295,-0.68086 0.32459,-0.2771 0.63336,-0.44336 0.31668,-0.16626 0.64128,-0.22959 0.3246,-0.0713 0.67295,-0.0713 1.22714,0 1.85258,0.72837 0.63337,0.72045 0.63337,2.17719 v 5.18566 h -1.37757 v -5.07482 q 0,-0.93421 -0.34835,-1.37757 -0.34835,-0.45127 -1.03713,-0.45127 -0.25334,0 -0.49877,0.0792 -0.23751,0.0713 -0.49878,0.26126 -0.26126,0.18209 -0.57002,0.49878 -0.30085,0.31668 -0.68087,0.7917 v 5.27275 h -1.37756 z"
           id="path989" />
        <path
           d="m 152.31605,121.02322 q 0.22167,0.2771 0.34043,0.6492 0.12667,0.36418 0.12667,0.7917 0,0.61753 -0.22959,1.13214 -0.22168,0.50669 -0.63337,0.87087 -0.41168,0.36419 -0.98963,0.57003 -0.57002,0.19793 -1.25881,0.19793 -0.49877,0 -0.93421,-0.10293 -0.43543,-0.11083 -0.68878,-0.26917 -0.15042,0.22167 -0.25334,0.4196 -0.10293,0.19792 -0.10293,0.44335 0,0.30085 0.28502,0.49878 0.29293,0.19792 0.76795,0.21376 l 2.0901,0.0792 q 0.59378,0.0158 1.09255,0.15042 0.50669,0.13459 0.86296,0.38794 0.36418,0.25334 0.56211,0.62544 0.20584,0.3721 0.20584,0.86296 0,0.53044 -0.22959,1.00546 -0.2296,0.47503 -0.71254,0.83129 -0.47502,0.36419 -1.2113,0.57795 -0.73629,0.21376 -1.74967,0.21376 -0.96588,0 -1.64674,-0.15834 -0.67295,-0.15043 -1.10839,-0.42752 -0.43544,-0.26918 -0.63336,-0.6492 -0.19793,-0.3721 -0.19793,-0.82337 0,-0.57795 0.26918,-1.01339 0.26918,-0.43543 0.83129,-0.8392 -0.20584,-0.095 -0.35627,-0.23751 -0.15042,-0.14251 -0.24543,-0.30877 -0.095,-0.17417 -0.1425,-0.36418 -0.0475,-0.19001 -0.0475,-0.3721 0,-0.51461 0.23752,-0.94213 0.24542,-0.42752 0.57794,-0.80754 -0.15042,-0.18209 -0.26918,-0.35626 -0.11084,-0.17418 -0.19793,-0.37211 -0.0792,-0.20584 -0.12667,-0.43543 -0.0396,-0.23751 -0.0396,-0.53836 0,-0.61753 0.22167,-1.12422 0.2296,-0.51461 0.63337,-0.87879 0.41168,-0.36419 0.98171,-0.56211 0.57794,-0.20585 1.27464,-0.20585 0.29293,0 0.56211,0.0396 0.26918,0.0396 0.47503,0.10292 h 2.8818 v 1.12422 z m -4.7819,7.97246 q 0,0.56211 0.58586,0.81546 0.58586,0.26126 1.63091,0.26126 0.65712,0 1.10047,-0.11876 0.45127,-0.11875 0.72045,-0.31668 0.2771,-0.19001 0.39586,-0.44335 0.11875,-0.24543 0.11875,-0.50669 0,-0.48294 -0.39585,-0.71254 -0.39585,-0.22959 -1.21131,-0.26918 l -2.07426,-0.0713 q -0.26127,0.17417 -0.43544,0.34043 -0.16626,0.16626 -0.26126,0.33252 -0.095,0.17417 -0.13459,0.34043 -0.0396,0.17418 -0.0396,0.34835 z m 0.41961,-6.49989 q 0,0.38002 0.12667,0.6967 0.12667,0.31668 0.35627,0.53836 0.22959,0.22168 0.53835,0.34835 0.31669,0.11875 0.6967,0.11875 0.41169,0 0.72837,-0.13459 0.3246,-0.1425 0.53836,-0.38001 0.22168,-0.23752 0.33252,-0.54628 0.11875,-0.30876 0.11875,-0.64128 0,-0.38002 -0.12667,-0.6967 -0.12667,-0.31668 -0.35627,-0.53836 -0.22959,-0.22168 -0.54627,-0.34043 -0.30877,-0.12667 -0.68879,-0.12667 -0.41168,0 -0.73628,0.1425 -0.31668,0.14251 -0.53836,0.38002 -0.21376,0.2296 -0.33252,0.53836 -0.11083,0.30876 -0.11083,0.64128 z"
           id="path991" />
        <path
           d="m 170.82609,127.73687 q -0.46711,0.11876 -0.96588,0.16626 -0.49878,0.0554 -1.01339,0.0554 -1.49632,0 -2.2326,-0.67295 -0.73629,-0.68087 -0.73629,-2.08218 v -4.14853 h -2.22468 V 119.899 h 2.22468 v -2.1851 l 1.37757,-0.35627 v 2.54137 h 3.57059 v 1.15589 h -3.57059 v 4.03769 q 0,0.85504 0.45127,1.28256 0.45919,0.4196 1.3459,0.4196 0.38002,0 0.83129,-0.0554 0.45127,-0.0633 0.94213,-0.19001 z"
           id="path993" />
        <path
           d="m 180.25528,123.81002 q 0,0.92629 -0.26126,1.70216 -0.26126,0.76796 -0.75212,1.32215 -0.49086,0.54627 -1.19547,0.85504 -0.70462,0.30085 -1.59925,0.30085 -0.85504,0 -1.5359,-0.26127 -0.67295,-0.26918 -1.14797,-0.78378 -0.46711,-0.51461 -0.72045,-1.27465 -0.24543,-0.76003 -0.24543,-1.74966 0,-0.9263 0.26126,-1.68633 0.26126,-0.76796 0.75212,-1.31423 0.49086,-0.55419 1.19547,-0.85504 0.70462,-0.30877 1.59925,-0.30877 0.85504,0 1.52798,0.26918 0.68087,0.26127 1.14798,0.77587 0.47502,0.50669 0.72045,1.26673 0.25334,0.76004 0.25334,1.74175 z m -1.40923,0.0633 q 0,-0.73629 -0.16626,-1.28257 -0.15834,-0.55419 -0.45919,-0.91837 -0.30085,-0.3721 -0.73628,-0.5542 -0.42752,-0.19 -0.95796,-0.19 -0.61753,0 -1.06089,0.24542 -0.43544,0.23752 -0.72045,0.64128 -0.2771,0.40377 -0.41169,0.94213 -0.12667,0.53044 -0.12667,1.11631 0,0.73628 0.15834,1.29047 0.16626,0.5542 0.46711,0.9263 0.30085,0.36418 0.72837,0.55419 0.42752,0.18209 0.96588,0.18209 0.61752,0 1.05296,-0.23751 0.44336,-0.24543 0.72045,-0.6492 0.28502,-0.40377 0.41169,-0.93421 0.13459,-0.53836 0.13459,-1.13213 z"
           id="path995" />
        <path
           d="m 198.21905,117.94349 q -1.08464,-0.22959 -1.86842,-0.22959 -1.86051,0 -1.86051,1.94759 v 1.3934 h 3.4835 v 1.14797 h -3.4835 v 5.64485 h -1.40131 v -5.64485 h -2.55721 v -1.14797 h 2.55721 v -1.31423 q 0,-3.17473 3.30932,-3.17473 0.82337,0 1.82092,0.19001 z m -8.32081,1.95551 z"
           id="path997" />
        <path
           d="m 205.18605,127.84771 -0.0317,-1.0688 q -0.6492,0.64128 -1.32215,0.92629 -0.66503,0.28502 -1.40131,0.28502 -0.68087,0 -1.16381,-0.17418 -0.48294,-0.17417 -0.79962,-0.47502 -0.30876,-0.30877 -0.45919,-0.72045 -0.14251,-0.41169 -0.14251,-0.89463 0,-1.19547 0.88671,-1.86842 0.89463,-0.68086 2.63638,-0.68086 h 1.64674 v -0.6967 q 0,-0.70462 -0.45127,-1.12422 -0.45127,-0.42752 -1.37756,-0.42752 -0.67295,0 -1.33007,0.15042 -0.64919,0.15042 -1.34589,0.42752 v -1.24298 q 0.26126,-0.095 0.57794,-0.18209 0.3246,-0.095 0.68087,-0.16626 0.35626,-0.0712 0.7442,-0.11083 0.38793,-0.0475 0.78378,-0.0475 0.72046,0 1.2984,0.15834 0.57794,0.15835 0.9738,0.48294 0.40376,0.3246 0.61752,0.81546 0.21376,0.49086 0.21376,1.15589 v 5.47859 z m -0.15043,-3.61809 h -1.74966 q -0.51461,0 -0.88671,0.10292 -0.3721,0.10293 -0.60961,0.29293 -0.23752,0.19001 -0.35627,0.45919 -0.11084,0.26126 -0.11084,0.59378 0,0.22959 0.0712,0.44335 0.0713,0.20585 0.2296,0.37211 0.15834,0.15834 0.41168,0.25334 0.25335,0.095 0.61753,0.095 0.47503,0 1.08464,-0.28502 0.61753,-0.29293 1.29839,-0.91837 z"
           id="path999" />
        <path
           d="m 209.31873,119.899 h 1.25881 l 0.0396,1.46465 q 0.70462,-0.84712 1.38548,-1.22714 0.68878,-0.38002 1.38548,-0.38002 1.23506,0 1.86843,0.79962 0.64128,0.79963 0.59377,2.37512 h -1.3934 q 0.0238,-1.04505 -0.30876,-1.51216 -0.3246,-0.47502 -0.95796,-0.47502 -0.2771,0 -0.56211,0.10292 -0.2771,0.095 -0.57795,0.31668 -0.29293,0.21376 -0.62544,0.5542 -0.33252,0.34043 -0.71254,0.82337 v 5.10649 h -1.3934 z"
           id="path1001" />
      </g>
    </g>
  </g>
</svg>
